<svg xmlns="http://www.w3.org/2000/svg" version="1.1" xmlns:xlink="http://www.w3.org/1999/xlink" xmlns:svgjs="http://svgjs.dev/svgjs" width="2000" height="1212" viewBox="0 0 2000 1212"><g transform="matrix(1,0,0,1,-1.2117096175769575,0.9183617143023639)"><svg viewBox="0 0 396 240" data-background-color="#2979ff" preserveAspectRatio="xMidYMid meet" height="1212" width="2000" xmlns="http://www.w3.org/2000/svg" xmlns:xlink="http://www.w3.org/1999/xlink"><defs></defs><g id="tight-bounds" transform="matrix(1,0,0,1,0.23991850428024009,-0.18185329237927306)"><svg viewBox="0 0 395.52 240.36266566618096" height="240.36266566618096" width="395.52"><g><svg viewBox="0 0 395.52 240.36266566618096" height="240.36266566618096" width="395.52"><g transform="matrix(1,0,0,1,0,158.35627258853728)"><svg viewBox="0 0 395.52 82.00639307764368" height="82.00639307764368" width="395.52"><g><svg viewBox="0 0 395.52 82.00639307764368" height="82.00639307764368" width="395.52"><g><svg viewBox="0 0 395.52 82.00639307764368" height="82.00639307764368" width="395.52"><g transform="matrix(1,0,0,1,0,0)"><svg width="395.52" viewBox="-0.36742323637008667 -30.55521011352539 195.38912963867188 40.511627197265625" height="82.00639307764368" data-palette-color="#ffffff"><path d="M17.743 8.086l-9.955 1.82c-0.813 0.149-1.584-0.029-2.314-0.533-0.728-0.497-1.175-1.198-1.34-2.104v0l-4.44-24.297c-0.165-0.905 0.004-1.722 0.508-2.451 0.505-0.723 1.164-1.158 1.977-1.307v0l9.955-1.819c0.938-0.171 1.761-0.007 2.469 0.494 0.716 0.506 1.157 1.212 1.322 2.117v0l4.44 24.297c0.165 0.905 0.002 1.718-0.489 2.438-0.484 0.726-1.195 1.174-2.133 1.345zM9.559 5.414v0l4.948-0.904c0.498-0.091 0.872-0.325 1.122-0.703 0.249-0.378 0.332-0.799 0.247-1.265v0l-3.528-19.301c-0.091-0.498-0.318-0.87-0.681-1.115-0.365-0.252-0.796-0.332-1.295-0.242v0l-4.948 0.905c-0.413 0.075-0.746 0.296-0.997 0.66-0.253 0.358-0.334 0.786-0.243 1.284v0l3.527 19.301c0.085 0.466 0.311 0.831 0.678 1.096 0.367 0.265 0.757 0.36 1.17 0.284zM33.017 5.782l-4.106 0.605-3.948-26.77-6.123 0.903-0.604-4.096 16.353-2.411 0.604 4.095-6.124 0.903zM54.145 3.24l-10.056 1.138c-0.821 0.093-1.579-0.137-2.272-0.689-0.692-0.546-1.09-1.276-1.194-2.189v0l-2.777-24.544c-0.103-0.914 0.121-1.718 0.673-2.411 0.553-0.687 1.24-1.076 2.062-1.169v0l10.056-1.138c0.947-0.107 1.757 0.113 2.429 0.661 0.68 0.554 1.072 1.288 1.175 2.202v0l2.777 24.543c0.103 0.914-0.115 1.714-0.654 2.399-0.532 0.691-1.272 1.09-2.219 1.197zM46.162 0.018v0l4.998-0.566c0.503-0.057 0.892-0.265 1.167-0.625 0.275-0.36 0.385-0.775 0.332-1.245v0l-2.206-19.496c-0.057-0.503-0.258-0.89-0.604-1.159-0.347-0.276-0.772-0.386-1.275-0.329v0l-4.998 0.565c-0.417 0.047-0.764 0.244-1.041 0.591-0.277 0.34-0.387 0.762-0.329 1.265v0l2.206 19.496c0.053 0.47 0.254 0.85 0.601 1.139 0.348 0.289 0.731 0.41 1.149 0.364zM73.562 1.678l-10.091 0.775c-0.824 0.063-1.589-0.192-2.295-0.766-0.699-0.568-1.083-1.298-1.151-2.188v0l-1.899-24.707c-0.066-0.864 0.202-1.64 0.804-2.329 0.61-0.682 1.326-1.055 2.151-1.118v0l10.09-0.775c0.917-0.07 1.706 0.186 2.366 0.771 0.654 0.592 1.014 1.32 1.081 2.183v0l0.443 5.773-4.055 1.255-0.322-4.178c-0.032-0.419-0.204-0.78-0.514-1.084-0.304-0.304-0.692-0.438-1.164-0.402v0l-5.075 0.39c-0.412 0.032-0.769 0.223-1.07 0.574-0.301 0.351-0.435 0.735-0.402 1.154v0l1.509 19.642c0.036 0.472 0.229 0.845 0.578 1.119 0.348 0.267 0.728 0.385 1.14 0.354v0l5.075-0.39c0.472-0.036 0.836-0.211 1.093-0.525 0.263-0.321 0.376-0.718 0.34-1.19v0l-0.249-3.24 4.052-1.305 0.519 6.761c0.068 0.891-0.176 1.668-0.733 2.333-0.564 0.672-1.304 1.043-2.221 1.113zM96.645 0.685l-14.789 0.565-1.192-31.177 4.147-0.159 1.034 27.03 10.642-0.406zM115.539 0.644l-16.59 0.081-0.151-31.2 16.589-0.08 0.02 4.1-12.44 0.06 0.038 7.75 8.29-0.04-0.92 4.154-7.35 0.036 0.054 11.05 12.44-0.061zM121.667 0.919l-4.148-0.136 7.31-30.977 4.048 0.133 5.173 31.387-4.148-0.137-1.008-5.866-5.927-0.195zM126.545-19.972l-2.643 11.019 4.417 0.145zM140.241 1.709l-4.142-0.266 1.997-31.136 4.141 0.266 6.942 21.298 1.331-20.768 4.142 0.266-1.997 31.136-4.141-0.266-6.941-21.308zM172.466 4.552l-16.505-1.672 3.144-31.041 16.506 1.672-0.414 4.079-12.376-1.253-0.781 7.71 8.248 0.836-1.354 4.034-7.312-0.741-1.114 10.994 12.377 1.253zM178.912 5.49l-4.111-0.563 4.236-30.911 13.256 1.816c0.852 0.117 1.546 0.525 2.083 1.225 0.529 0.705 0.733 1.5 0.612 2.385v0l-1.301 9.491c-0.121 0.885-0.531 1.593-1.23 2.123-0.706 0.536-1.485 0.745-2.337 0.628v0l-0.931-0.127 1.998 15.616-4.062-0.557-2.038-15.622-4.111-0.563zM182.586-21.319l-1.047 7.638 6.628 0.909c0.41 0.056 0.797-0.046 1.163-0.305 0.366-0.266 0.58-0.62 0.64-1.063v0l0.611-4.458c0.061-0.443-0.05-0.841-0.331-1.196-0.281-0.355-0.626-0.56-1.036-0.617v0z" opacity="1" transform="matrix(1,0,0,1,0,0)" fill="#ffffff" class="undefined-text-0" data-fill-palette-color="primary" id="text-0"></path></svg></g></svg></g></svg></g></svg></g><g transform="matrix(1,0,0,1,127.79954948030904,0)"><svg viewBox="0 0 139.9209010393819 132.68634399962747" height="132.68634399962747" width="139.9209010393819"><g><svg xmlns="http://www.w3.org/2000/svg" xmlns:xlink="http://www.w3.org/1999/xlink" version="1.1" x="0" y="0" viewBox="5.893143653869629 8.24691390991211 90.0068588256836 85.35308837890625" enable-background="new 0 0 100 100" xml:space="preserve" height="132.68634399962747" width="139.9209010393819" class="icon-icon-0" data-fill-palette-color="accent" id="icon-0"><g fill="#ffffff" data-fill-palette-color="accent"><path fill="#ffffff" d="M43.9 46.5c-2.2-5.4-1.5-10.7-0.9-13.4 0.3-1.3-0.4-2.6-1.6-3.1L35 27.4c-0.3-0.1-0.7-0.2-1-0.2-1 0-1.9 0.5-2.4 1.4-1.8 3.2-5.5 9.5-10.4 15.4C14.8 51.9 6.8 69.8 5.9 81.8c-0.1 1.8 0.9 3.5 2.6 4.2l18.1 7.3c0.5 0.2 1.1 0.3 1.6 0.3 1.3 0 2.6-0.6 3.4-1.7l0.3-0.4c3.3-4.3 8.2-10.7 12.9-26.4 1.7-5.8 1.6-12.1-0.5-17.7C44.2 47.2 44 46.9 43.9 46.5zM41.9 64.4c-4.5 15.1-9.3 21.3-12.4 25.4l-0.3 0.4c-0.3 0.4-0.9 0.6-1.5 0.4L9.7 83.2C9.2 83 8.9 82.5 8.9 82c0.9-11.3 8.6-28.7 14.7-36.1 4.9-6 8.7-12.3 10.5-15.6l1.3 0.5c-1.2 3.7-4.1 14-2.9 26.5h-12c-1 0-2 0.6-2.4 1.5-4.6 9.8-6.6 16.6-7.1 19.9-0.2 1.2 0.5 2.5 1.7 2.9l13.5 5.8c1.1 0.5 2.3 0.2 3.2-0.7 6.7-7 10.6-22.5 11.8-27.7 0.2-0.9-0.5-1.8-1.4-1.8h-4.6c-1.2-11.9 1.5-21.9 2.7-25.5l2.3 0.9c-0.7 3.1-1.4 8.9 1.1 14.9 0.1 0.3 0.3 0.7 0.4 1C43.3 53.6 43.4 59.2 41.9 64.4z" data-fill-palette-color="accent"></path><polygon fill="#ffffff" points="61.9,21.8 62.8,19.4 59.8,16.1 57.4,21.9  " data-fill-palette-color="accent"></polygon><path fill="#ffffff" d="M56.6 28.2c-0.5-0.8-1-1.8-1.1-2.4-0.4-2 0.5-4.3 0.5-4.3l2.6-6.3c0 0-11.4-8.8-21.9-6.6-1.5 0.3-2.8 1.1-3.8 2.3l-0.2 0.2c-0.6 0.7-0.5 1.8 0.1 2.4 1 0.9 2.3 2.2 2.8 2.7 0.7 0.8 1.3 1.4 1 3.6-0.4 0.1-0.7 0.4-0.9 0.8l-1.4 3.5c-0.3 0.7 0 1.4 0.7 1.7l7.5 3c0.7 0.3 1.4 0 1.7-0.7l1.4-3.5c0.2-0.5 0.1-1.1-0.3-1.5 0.7-1 2.4-2.9 5.9-2.8-0.6 6.2 2.3 10.9 4.6 13.9 2.4 3.3 2.6 1.1 2.6 1.1-0.4-1-0.7-2.9-0.8-4.3C57.4 30 57.1 29 56.6 28.2z" data-fill-palette-color="accent"></path><path fill="#ffffff" d="M67.2 48.8c-4 0-7.3 3.3-7.3 7.3 0 4 3.3 7.3 7.3 7.3 4 0 7.3-3.3 7.3-7.3C74.5 52.1 71.2 48.8 67.2 48.8zM67.2 61.1c-2.7 0-5-2.2-5-5 0-2.7 2.2-5 5-5 2.7 0 5 2.2 5 5C72.2 58.9 69.9 61.1 67.2 61.1z" data-fill-palette-color="accent"></path><path fill="#ffffff" d="M83 46.2c-2.6 0-4.7 2.1-4.7 4.7 0 2.6 2.1 4.7 4.7 4.7 2.6 0 4.7-2.1 4.7-4.7C87.7 48.3 85.6 46.2 83 46.2zM83 53.1c-1.2 0-2.2-1-2.2-2.2 0-1.2 1-2.2 2.2-2.2 1.2 0 2.2 1 2.2 2.2C85.2 52.1 84.2 53.1 83 53.1z" data-fill-palette-color="accent"></path><path fill="#ffffff" d="M95.9 26.4c0-2.4-1.2-4.7-3.1-6.2 1.1-1.8 1.5-3.9 1-5.9-0.8-3.5-3.9-5.9-7.5-5.9-4 0-7 2.6-7.6 6.6l-12 2.9c-0.3 0.1-0.6 0.3-0.7 0.5-0.2 0.3-0.2 0.6-0.1 0.9 0.1 0.6 0.8 1 1.4 0.9l11.7-2.9c0.2 0.8 0.5 1.5 0.9 2.1 0.3 0.5 1.1 0.7 1.6 0.3 0.3-0.2 0.4-0.4 0.5-0.7 0.1-0.3 0-0.6-0.2-0.9-0.6-0.8-0.7-2-0.7-2.5 0-0.5 0.2-1.3 0.2-1.4 0.9-2.2 2.7-3.4 5-3.4 3 0 5.4 2.4 5.4 5.4 0 1-1 3.2-1.7 4.4-0.1 0.2-0.1 0.4-0.1 0.7 0.1 0.2 0.2 0.4 0.4 0.5 1.9 1 3.3 3.1 3.3 4.8 0 2.3-2.1 4.7-4.6 5.4-0.2 0.1-0.4 0.2-0.6 0.4-0.1 0.2-0.2 0.5-0.1 0.7 0.3 1 0.6 2.5 0.6 3 0 3-2.4 5.4-5.4 5.4-0.4 0-0.8 0-1.2-0.1-1.4-0.3-2.7-1.2-3.5-2.4-1.5-2.5-0.6-5.3 0.9-6.9 0.2-0.2 0.3-0.5 0.3-0.9 0-0.3-0.2-0.6-0.4-0.8-0.4-0.3-1.1-0.3-1.5 0.1-0.4 0.3-0.6 0.6-0.7 0.8l-11.3-8c-0.5-0.4-1.3-0.2-1.6 0.3-0.4 0.5-0.2 1.3 0.3 1.6L76.4 33c-0.6 1.5-0.7 3.1-0.4 4.7 0.7 2.9 3.1 5.3 6.1 5.8 0.5 0.1 1 0.1 1.5 0.1 0 0 0 0 0 0 2.1 0 4-0.8 5.5-2.3 1.5-1.5 2.3-3.4 2.3-5.5 0-0.8-0.1-1.6-0.4-2.3C93.9 32.5 95.9 29.6 95.9 26.4z" data-fill-palette-color="accent"></path><path fill="#ffffff" d="M79.7 25.5c0.1 0 0.2 0 0.2 0 0.5 0 1-0.4 1.1-0.9 0.1-0.6-0.3-1.2-0.9-1.4l-11.4-2.5c-0.6-0.1-1.3 0.3-1.4 0.9-0.1 0.6 0.3 1.2 0.9 1.4L79.7 25.5z" data-fill-palette-color="accent"></path></g></svg></g></svg></g><g></g></svg></g></svg><rect width="395.52" height="240.36266566618096" fill="none" stroke="none" visibility="hidden"></rect></g></svg></g></svg>